<svg width="24" height="24" viewBox="0 0 24 24" fill="none" xmlns="http://www.w3.org/2000/svg">
<g clip-path="url(#clip0_515_4920)">
<path fill-rule="evenodd" clip-rule="evenodd" d="M12.7071 8.2929C12.5196 8.10543 12.2653 8.00011 12.0001 8.00011C11.7349 8.00011 11.4806 8.10543 11.2931 8.2929L5.6361 13.9499C5.54059 14.0421 5.46441 14.1525 5.412 14.2745C5.35959 14.3965 5.332 14.5277 5.33085 14.6605C5.32969 14.7933 5.355 14.925 5.40528 15.0479C5.45556 15.1708 5.52981 15.2824 5.6237 15.3763C5.7176 15.4702 5.82925 15.5444 5.95214 15.5947C6.07504 15.645 6.20672 15.6703 6.3395 15.6692C6.47228 15.668 6.6035 15.6404 6.7255 15.588C6.84751 15.5356 6.95785 15.4594 7.0501 15.3639L12.0001 10.4139L16.9501 15.3639C17.1387 15.5461 17.3913 15.6469 17.6535 15.6446C17.9157 15.6423 18.1665 15.5371 18.3519 15.3517C18.5373 15.1663 18.6425 14.9155 18.6448 14.6533C18.6471 14.3911 18.5463 14.1385 18.3641 13.9499L12.7071 8.2929Z" fill="#888C9D"/>
</g>
<defs>
<clipPath id="clip0_515_4920">
<rect width="24" height="24" fill="white" transform="matrix(1 0 0 -1 0 24)"/>
</clipPath>
</defs>
</svg>
