<svg width="30" height="30" viewBox="0 0 30 30" fill="none" xmlns="http://www.w3.org/2000/svg">
<path d="M5.62501 21.5878C5.44751 21.5878 5.29918 21.5274 5.18001 21.4066C5.06084 21.2857 5.00084 21.137 5.00001 20.9603C4.99918 20.7836 5.05918 20.6353 5.18001 20.5153C5.30084 20.3953 5.44918 20.3357 5.62501 20.3366H24.375C24.5525 20.3366 24.7008 20.3966 24.82 20.5166C24.94 20.6366 25 20.7853 25 20.9628C25 21.1403 24.94 21.2886 24.82 21.4078C24.7 21.527 24.5517 21.5866 24.375 21.5866L5.62501 21.5878ZM5.62501 15.6253C5.44751 15.6253 5.29918 15.5653 5.18001 15.4453C5.06084 15.3253 5.00084 15.1766 5.00001 14.9991C4.99918 14.8216 5.05918 14.6732 5.18001 14.5541C5.30084 14.4349 5.44918 14.3753 5.62501 14.3753H24.375C24.5525 14.3753 24.7008 14.4353 24.82 14.5553C24.9392 14.6753 24.9992 14.8241 25 15.0016C25.0008 15.1791 24.9408 15.3274 24.82 15.4466C24.6992 15.5657 24.5508 15.6253 24.375 15.6253H5.62501ZM5.62501 9.66281C5.44751 9.66281 5.29918 9.60323 5.18001 9.48406C5.06001 9.36406 5.00001 9.21531 5.00001 9.03781C5.00001 8.86031 5.06001 8.71198 5.18001 8.59281C5.30001 8.47365 5.44834 8.41406 5.62501 8.41406H24.375C24.5525 8.41406 24.7008 8.47406 24.82 8.59406C24.9392 8.71406 24.9992 8.86198 25 9.03781C25.0008 9.21365 24.9408 9.36198 24.82 9.48281C24.6992 9.60365 24.5508 9.66365 24.375 9.66281H5.62501Z" fill="#888C9D"/>
</svg>
