<svg width="23" height="23" viewBox="0 0 23 23" fill="none" xmlns="http://www.w3.org/2000/svg">
<path d="M11.4555 21.804C13.752 21.8037 15.9831 21.0396 17.7977 19.6321C19.6122 18.2246 20.9071 16.2535 21.4785 14.0293C22.0499 11.8051 21.8654 9.45398 20.9539 7.34615C20.0425 5.23832 18.4559 3.49348 16.4439 2.38632C14.432 1.27916 12.109 0.872563 9.84061 1.23055C7.57223 1.58853 5.48733 2.69075 3.91413 4.3637C2.34094 6.03664 1.3688 8.18529 1.15077 10.4714C0.932739 12.7574 1.4812 15.0511 2.7098 16.9913L1.10555 21.804L5.9183 20.1998C7.57381 21.2505 9.49475 21.807 11.4555 21.804Z" fill="#DBDFE9" stroke="#DBDFE9" stroke-width="2.208" stroke-linecap="round" stroke-linejoin="round"/>
</svg>
