<svg width="27" height="23" viewBox="0 0 27 23" fill="none" xmlns="http://www.w3.org/2000/svg">
<path d="M13.125 0C12.633 -7.33084e-09 12.1459 0.0968995 11.6914 0.285166C11.2369 0.473433 10.8239 0.74938 10.476 1.09725C10.1281 1.44512 9.85218 1.85811 9.66392 2.31262C9.47565 2.76714 9.37875 3.25429 9.37875 3.74625C9.37875 4.23821 9.47565 4.72536 9.66392 5.17988C9.85218 5.63439 10.1281 6.04738 10.476 6.39525C10.8239 6.74312 11.2369 7.01907 11.6914 7.20733C12.1459 7.3956 12.633 7.4925 13.125 7.4925C14.1186 7.4925 15.0714 7.09781 15.774 6.39525C16.4766 5.69269 16.8713 4.73982 16.8713 3.74625C16.8713 2.75268 16.4766 1.79981 15.774 1.09725C15.0714 0.394693 14.1186 0 13.125 0ZM21.5625 1.87125C20.8166 1.87125 20.1012 2.16757 19.5738 2.69501C19.0463 3.22246 18.75 3.93783 18.75 4.68375C18.75 5.42967 19.0463 6.14504 19.5738 6.67249C20.1012 7.19993 20.8166 7.49625 21.5625 7.49625C22.3084 7.49625 23.0238 7.19993 23.5512 6.67249C24.0787 6.14504 24.375 5.42967 24.375 4.68375C24.375 3.93783 24.0787 3.22246 23.5512 2.69501C23.0238 2.16757 22.3084 1.87125 21.5625 1.87125ZM4.6875 1.87125C3.94158 1.87125 3.22621 2.16757 2.69876 2.69501C2.17132 3.22246 1.875 3.93783 1.875 4.68375C1.875 5.42967 2.17132 6.14504 2.69876 6.67249C3.22621 7.19993 3.94158 7.49625 4.6875 7.49625C5.43342 7.49625 6.14879 7.19993 6.67624 6.67249C7.20368 6.14504 7.5 5.42967 7.5 4.68375C7.5 3.93783 7.20368 3.22246 6.67624 2.69501C6.14879 2.16757 5.43342 1.87125 4.6875 1.87125ZM7.5 11.2331C7.50347 10.7381 7.70254 10.2646 8.05379 9.91578C8.40505 9.56698 8.87998 9.37124 9.375 9.37125H16.875C17.3723 9.37125 17.8492 9.56879 18.2008 9.92043C18.5525 10.2721 18.75 10.749 18.75 11.2463V16.8713C18.7505 17.4614 18.6581 18.0479 18.4762 18.6094C18.0611 19.8819 17.2058 20.9648 16.0641 21.6636C14.9223 22.3623 13.5689 22.6311 12.2468 22.4218C10.9247 22.2124 9.72053 21.5386 8.85053 20.5213C7.98053 19.504 7.50169 18.2098 7.5 16.8713V11.2331ZM5.625 11.2463C5.625 10.5619 5.80688 9.9225 6.1275 9.37125H1.875C1.37772 9.37125 0.900806 9.56879 0.549175 9.92043C0.197544 10.2721 2.59525e-07 10.749 2.59525e-07 11.2463V15.9338C-0.00025509 16.7012 0.187924 17.457 0.548012 18.1347C0.908099 18.8124 1.42908 19.3914 2.0652 19.8207C2.70133 20.25 3.43313 20.5166 4.19636 20.597C4.95958 20.6774 5.73087 20.5692 6.4425 20.2819C5.90399 19.225 5.62382 18.0555 5.625 16.8694V11.2463ZM20.625 11.2463V16.8713C20.625 18.0994 20.3306 19.2581 19.8075 20.2819C20.5191 20.5692 21.2904 20.6774 22.0536 20.597C22.8169 20.5166 23.5487 20.25 24.1848 19.8207C24.8209 19.3914 25.3419 18.8124 25.702 18.1347C26.0621 17.457 26.2503 16.7012 26.25 15.9338V11.2463C26.25 10.749 26.0525 10.2721 25.7008 9.92043C25.3492 9.56879 24.8723 9.37125 24.375 9.37125H20.1225C20.4412 9.9225 20.625 10.5619 20.625 11.2463Z" fill="#DBDFE9"/>
</svg>
