<svg width="20" height="22" viewBox="0 0 20 22" fill="none" xmlns="http://www.w3.org/2000/svg">
<path d="M0 19.375V8.125C0 7.72917 0.0887498 7.35417 0.26625 7C0.44375 6.64583 0.688334 6.35417 1 6.125L8.5 0.5C8.9375 0.166667 9.4375 0 10 0C10.5625 0 11.0625 0.166667 11.5 0.5L19 6.125C19.3125 6.35417 19.5575 6.64583 19.735 7C19.9125 7.35417 20.0008 7.72917 20 8.125V19.375C20 20.0625 19.755 20.6513 19.265 21.1413C18.775 21.6313 18.1867 21.8758 17.5 21.875H13.75C13.3958 21.875 13.0992 21.755 12.86 21.515C12.6208 21.275 12.5008 20.9783 12.5 20.625V14.375C12.5 14.0208 12.38 13.7242 12.14 13.485C11.9 13.2458 11.6033 13.1258 11.25 13.125H8.75C8.39583 13.125 8.09917 13.245 7.86 13.485C7.62083 13.725 7.50083 14.0217 7.5 14.375V20.625C7.5 20.9792 7.38 21.2762 7.14 21.5162C6.9 21.7562 6.60333 21.8758 6.25 21.875H2.5C1.8125 21.875 1.22417 21.6304 0.735 21.1413C0.245833 20.6521 0.000833333 20.0633 0 19.375Z" fill="#4F76C4"/>
</svg>
