<svg width="11" height="12" viewBox="0 0 11 12" fill="none" xmlns="http://www.w3.org/2000/svg">
<path d="M10.1296 0.163821C10.3153 -0.0404106 10.6314 -0.0558328 10.8357 0.129641C11.0399 0.315306 11.0553 0.631358 10.8699 0.835696L6.17456 5.99976L10.8699 11.1638C11.0553 11.3682 11.0399 11.6842 10.8357 11.8699C10.6314 12.0553 10.3153 12.0399 10.1296 11.8357L5.49976 6.74195L0.869876 11.8357C0.684211 12.0399 0.368159 12.0553 0.163821 11.8699C-0.0404106 11.6842 -0.0558328 11.3682 0.129641 11.1638L4.82398 5.99976L0.129641 0.835696C-0.0558327 0.631358 -0.0404106 0.315306 0.163821 0.129641C0.368159 -0.0558327 0.684211 -0.0404106 0.869876 0.163821L5.49976 5.25659L10.1296 0.163821Z" fill="#6690E1"/>
</svg>
