<svg width="32" height="32" viewBox="0 0 32 32" fill="none" xmlns="http://www.w3.org/2000/svg">
<path fill-rule="evenodd" clip-rule="evenodd" d="M18.9574 7.27879C18.7547 7.38012 17.7894 8.31612 14.7667 11.3455C11.1934 14.9268 10.8334 15.3041 10.7534 15.5428C10.644 15.8379 10.644 16.1624 10.7534 16.4575C10.8334 16.6961 11.1934 17.0735 14.7667 20.6548C17.7894 23.6841 18.7547 24.6201 18.9574 24.7215C19.117 24.7994 19.2906 24.8447 19.4679 24.8546C19.6452 24.8645 19.8228 24.8389 19.9901 24.7793C20.1574 24.7197 20.3111 24.6273 20.4422 24.5074C20.5732 24.3876 20.6791 24.2428 20.7534 24.0815C20.8867 23.7881 20.8827 23.2961 20.7427 22.9868C20.6601 22.8028 19.8481 21.9588 17.2654 19.3735L13.8947 16.0001L17.2654 12.6268C19.8481 10.0415 20.6601 9.19745 20.7427 9.01345C20.8827 8.70412 20.8867 8.21212 20.7534 7.91879C20.6791 7.75749 20.5732 7.61266 20.4422 7.49282C20.3111 7.37298 20.1574 7.28054 19.9901 7.22092C19.8228 7.1613 19.6452 7.13571 19.4679 7.14564C19.2906 7.15558 19.117 7.20085 18.9574 7.27879Z" fill="#14161B"/>
</svg>
