<svg width="40" height="42" viewBox="0 0 40 42" fill="none" xmlns="http://www.w3.org/2000/svg">
<rect x="0.21569" y="0.21569" width="39.5686" height="40.777" rx="19.7843" fill="#FCFDFF"/>
<rect x="0.21569" y="0.21569" width="39.5686" height="40.777" rx="19.7843" stroke="#E3ECFF" stroke-width="0.43138"/>
<path d="M16.6062 18.6689C15.627 17.6898 15.1375 16.5127 15.1375 15.1377C15.1375 13.7627 15.627 12.5856 16.6062 11.6064C17.5854 10.6273 18.7625 10.1377 20.1375 10.1377C21.5125 10.1377 22.6895 10.6273 23.6687 11.6064C24.6479 12.5856 25.1375 13.7627 25.1375 15.1377C25.1375 16.5127 24.6479 17.6898 23.6687 18.6689C22.6895 19.6481 21.5125 20.1377 20.1375 20.1377C18.7625 20.1377 17.5854 19.6481 16.6062 18.6689ZM10.1375 27.6377V26.6377C10.1375 25.9294 10.32 25.2785 10.685 24.6852C11.05 24.0919 11.5341 23.6385 12.1375 23.3252C13.4291 22.6794 14.7416 22.1952 16.075 21.8727C17.4083 21.5502 18.7625 21.3885 20.1375 21.3877C21.5125 21.3869 22.8666 21.5485 24.2 21.8727C25.5333 22.1969 26.8458 22.681 28.1375 23.3252C28.7416 23.6377 29.2262 24.091 29.5912 24.6852C29.9562 25.2794 30.1383 25.9302 30.1375 26.6377V27.6377C30.1375 28.3252 29.8929 28.9139 29.4037 29.4039C28.9145 29.8939 28.3258 30.1385 27.6375 30.1377H12.6375C11.95 30.1377 11.3616 29.8931 10.8725 29.4039C10.3833 28.9148 10.1383 28.326 10.1375 27.6377Z" fill="#DBDFE9"/>
<path d="M23.2807 22.2942L21 23.8731C22.9298 25.9649 23.4561 26.6667 24.5088 27.3819C25.0348 27.7393 25.5943 28.194 26.7895 27.3819C27.8421 26.6667 29.9474 23.8731 31 22.2942C30.0058 21.417 28.3684 19.838 28.3684 20.0135C28.3684 20.5097 26.4386 25.9784 25.386 25.6275C24.5439 25.3468 23.6316 23.2883 23.2807 22.2942Z" fill="#C7CBDB"/>
</svg>
