<svg width="32" height="32" viewBox="0 0 32 32" fill="none" xmlns="http://www.w3.org/2000/svg">
<path d="M12.6799 5.6392L24.0932 11.3459C29.2132 13.9059 29.2132 18.0925 24.0932 20.6525L12.6799 26.3592C4.99986 30.1992 1.86653 27.0525 5.70653 19.3859L6.86653 17.0792C7.19986 16.3992 7.19986 15.6125 6.86653 14.9325L5.70653 12.6125C1.86653 4.94587 5.0132 1.7992 12.6799 5.6392Z" fill="#4F76C4"/>
<path d="M19.7864 17H12.5864C12.0398 17 11.5864 16.5467 11.5864 16C11.5864 15.4533 12.0398 15 12.5864 15H19.7864C20.3331 15 20.7864 15.4533 20.7864 16C20.7864 16.5467 20.3331 17 19.7864 17Z" fill="#3B61AB"/>
</svg>
