<svg width="32" height="32" viewBox="0 0 32 32" fill="none" xmlns="http://www.w3.org/2000/svg">
<path d="M28.1204 28.667C28.1204 29.0403 27.827 29.3337 27.4537 29.3337H4.54704C4.1737 29.3337 3.88037 29.0403 3.88037 28.667C3.88037 23.147 9.32037 18.667 16.0004 18.667C17.3737 18.667 18.707 18.8536 19.9337 19.2136C19.147 20.147 18.667 21.3603 18.667 22.667C18.667 23.667 18.947 24.6137 19.4403 25.4137C19.707 25.867 20.0537 26.2803 20.4537 26.627C21.387 27.4803 22.627 28.0003 24.0004 28.0003C25.4937 28.0003 26.8404 27.387 27.8004 26.4003C28.0137 27.1203 28.1204 27.8803 28.1204 28.667Z" fill="#6690E1"/>
<path d="M27.9598 19.1064C26.9998 18.013 25.5732 17.333 23.9998 17.333C22.5065 17.333 21.1465 17.9464 20.1732 18.9464C19.2398 19.9064 18.6665 21.2263 18.6665 22.6663C18.6665 23.6663 18.9465 24.613 19.4398 25.413C19.7065 25.8663 20.0532 26.2796 20.4532 26.6263C21.3865 27.4796 22.6265 27.9997 23.9998 27.9997C25.9465 27.9997 27.6399 26.9597 28.5599 25.413C28.8399 24.9597 29.0532 24.4397 29.1732 23.9063C29.2798 23.5063 29.3332 23.093 29.3332 22.6663C29.3332 21.3063 28.8132 20.053 27.9598 19.1064ZM25.9998 23.6396H24.9998V24.6797C24.9998 25.2264 24.5465 25.6797 23.9998 25.6797C23.4532 25.6797 22.9998 25.2264 22.9998 24.6797V23.6396H21.9998C21.4532 23.6396 20.9998 23.1863 20.9998 22.6396C20.9998 22.093 21.4532 21.6396 21.9998 21.6396H22.9998V20.693C22.9998 20.1464 23.4532 19.693 23.9998 19.693C24.5465 19.693 24.9998 20.1464 24.9998 20.693V21.6396H25.9998C26.5465 21.6396 26.9998 22.093 26.9998 22.6396C26.9998 23.1863 26.5465 23.6396 25.9998 23.6396Z" fill="#3B61AB"/>
<path d="M16.0002 16.0003C19.6821 16.0003 22.6668 13.0156 22.6668 9.33366C22.6668 5.65176 19.6821 2.66699 16.0002 2.66699C12.3183 2.66699 9.3335 5.65176 9.3335 9.33366C9.3335 13.0156 12.3183 16.0003 16.0002 16.0003Z" fill="#3B61AB"/>
</svg>
