<svg width="32" height="32" viewBox="0 0 32 32" fill="none" xmlns="http://www.w3.org/2000/svg">
<path d="M23.9998 17.333C22.7465 17.333 21.5865 17.773 20.6665 18.5063C19.4398 19.4797 18.6665 20.9863 18.6665 22.6663C18.6665 23.6663 18.9465 24.613 19.4398 25.413C20.3598 26.9597 22.0532 27.9997 23.9998 27.9997C25.3465 27.9997 26.5732 27.5063 27.5065 26.6663C27.9198 26.3197 28.2799 25.893 28.5599 25.413C29.0532 24.613 29.3332 23.6663 29.3332 22.6663C29.3332 19.7197 26.9465 17.333 23.9998 17.333ZM26.7598 22.093L23.9198 24.7196C23.7332 24.893 23.4798 24.9863 23.2398 24.9863C22.9865 24.9863 22.7332 24.893 22.5332 24.693L21.2132 23.373C20.8265 22.9864 20.8265 22.3463 21.2132 21.9596C21.5998 21.573 22.2398 21.573 22.6265 21.9596L23.2665 22.5997L25.3998 20.6263C25.7998 20.253 26.4398 20.2797 26.8132 20.6797C27.1865 21.0797 27.1598 21.7064 26.7598 22.093Z" fill="#3B61AB"/>
<path d="M28.1204 28.667C28.1204 29.0403 27.827 29.3337 27.4537 29.3337H4.54704C4.1737 29.3337 3.88037 29.0403 3.88037 28.667C3.88037 23.147 9.32037 18.667 16.0004 18.667C17.3737 18.667 18.707 18.8536 19.9337 19.2136C19.147 20.147 18.667 21.3603 18.667 22.667C18.667 23.667 18.947 24.6137 19.4403 25.4137C19.707 25.867 20.0537 26.2803 20.4537 26.627C21.387 27.4803 22.627 28.0003 24.0004 28.0003C25.4937 28.0003 26.8404 27.387 27.8004 26.4003C28.0137 27.1203 28.1204 27.8803 28.1204 28.667Z" fill="#6690E1"/>
<path d="M16.0002 16.0003C19.6821 16.0003 22.6668 13.0156 22.6668 9.33366C22.6668 5.65176 19.6821 2.66699 16.0002 2.66699C12.3183 2.66699 9.3335 5.65176 9.3335 9.33366C9.3335 13.0156 12.3183 16.0003 16.0002 16.0003Z" fill="#3B61AB"/>
</svg>
